PathFileType	4	(X/Y/Z)	3_coords_data.trc
DataRate	CameraRate	NumFrames	NumMarkers	Units	OrigDataRate	OrigDataStartFrame	OrigNumFrames
30.0	30.0	5	21	m	30.0	49	78
Frame#	Time	THUMB_TIP	THUMB_IP	THUMB_MCP	THUMB_CMC	INDEX_TIP	INDEX_DIP	INDEX_PIP	INDEX_MCP	MIDDLE_TIP	MIDDLE_DIP	MIDDLE_PIP	MIDDLE_MCP	RING_TIP	RING_DIP	RING_PIP	RING_MCP	PINKY_TIP	PINKY_DIP	PINKY_PIP	PINKY_MCP	WRIST
X1	Y1	Z1	X2	Y2	Z2	X3	Y3	Z3	X4	Y4	Z4	X5	Y5	Z5	X6	Y6	Z6	X7	Y7	Z7	X8	Y8	Z8	X9	Y9	Z9	X10	Y10	Z10	X11	Y11	Z11	X12	Y12	Z12	X13	Y13	Z13	X14	Y14	Z14	X15	Y15	Z15	X16	Y16	Z16	X17	Y17	Z17	X18	Y18	Z18	X19	Y19	Z19	X20	Y20	Z20	X21	Y21	Z21
47	1.599999999999993	0.48463785629498257	-0.013573971359084114	-0.17251111372766947	0.4837644506334876	-0.015690903550806046	-0.14964726101982245	0.473928690160083	-0.024036755085382056	-0.12132016130819245	0.4760365396541901	-0.026729274475964182	-0.07684323122256798	0.5152456991558081	-0.021991343705055733	-0.10274831968771458	0.5299814885791977	-0.014652737815712302	-0.11029824509598285	0.5324018709157765	0.005892490387498728	-0.12458268349666057	0.4908290291295081	0.014791450033058262	-0.12210408771666925	0.51602448563749	-0.018647032360876836	-0.08843374408153393	0.5318276693172469	-0.010945412451352499	-0.09278626477109797	0.5372870485659896	0.014239046180379633	-0.10640051361725089	0.49533904229713843	0.029538856552795312	-0.10484215113164252	0.5102632943784589	-0.005051193862102177	-0.07784675305541233	0.5267431789181825	0.002187730761687323	-0.07885242489476607	0.5365906133894701	0.02382499215468692	-0.08627111296912993	0.49917114030641274	0.03913718712035241	-0.08647249201422413	0.5122180147909664	-0.005094646154422677	-0.06521113856408611	0.527432456158352	0.002643504057936674	-0.06392980911021917	0.5320328349666041	0.02308628077940078	-0.06524943547284878	0.49978813992093574	0.03924666052957082	-0.06517719461088134	0.4622830810018609	-0.023011742144276925	-0.051989820119430985
48	1.6333333333333262	0.4890926899140121	-0.011786003992938943	-0.17149865468875714	0.4859502696483281	-0.014603700805560615	-0.14891136225371837	0.47471403314189187	-0.023715965316895127	-0.12135172465365363	0.47601548848183683	-0.026684807949253764	-0.07686147642527852	0.5230963348700322	-0.02166409849126738	-0.10464441578314398	0.5349441782435151	-0.011692153697109742	-0.11403531160940517	0.5322447140386206	0.009067190586213747	-0.12795552536253896	0.4904129872738461	0.014715464808346956	-0.12231285505595246	0.5243511842178801	-0.018058961023221687	-0.09118939614482802	0.5380752973074748	-0.0077478647199561435	-0.096962611274095	0.5377133388033071	0.018158831104487905	-0.11030883349242304	0.4947720577483906	0.029432015225760333	-0.10529788327010381	0.5168999084710485	-0.0048470669546129	-0.08016668930027604	0.5319276194814894	0.004876233969590693	-0.0823173452290713	0.5376768420152905	0.02785624855588409	-0.09000144236995777	0.49887333445414783	0.038876234933020504	-0.08725034527969078	0.5189035501100795	-0.0044473680853903685	-0.06804418806861257	0.5326953304816793	0.0056517192357075086	-0.06715243167676865	0.5340237935688874	0.02657643092629547	-0.068249539461672	0.5001722530424382	0.03882558971203098	-0.06603261275381778	0.4622830810018608	-0.023011742144276925	-0.051989820119430985
49	1.6666666666666594	0.49391946260931574	-0.010238398009426053	-0.17005344631473807	0.4884894129580005	-0.013707781078634018	-0.14799720135093375	0.47587110576206937	-0.023517271500329673	-0.12128817251842516	0.47613386685846015	-0.026695645343373653	-0.076794140375675	0.533111392945443	-0.020088312423213295	-0.10771098022914649	0.5406143128508051	-0.007630054712773782	-0.11850440451034638	0.5322394902434125	0.012402680256625498	-0.1311756991932317	0.49062436613273164	0.014456196944688027	-0.12236657843889542	0.534828502678727	-0.016162445428743233	-0.09479299752038073	0.5451503373331409	-0.0030482686655483038	-0.10182706442300693	0.5380096655033704	0.02243717374125187	-0.11403003869771533	0.49466990481485584	0.029226385197603677	-0.10556129190357655	0.5252002223019462	-0.0034406522600212153	-0.08287432249967885	0.5379161953476105	0.00891993707402472	-0.08611775599167704	0.5384392072173213	0.032631218018234764	-0.09371259592210901	0.4988814262678448	0.038550430115371515	-0.08780787505636467	0.5269369564844681	-0.002676931696653506	-0.07104225952406262	0.5384382605520773	0.009984743293090959	-0.07040823176562094	0.5357921095960343	0.030802075817832453	-0.07107798595349035	0.5007895821383797	0.03829679644210082	-0.06665806679808783	0.462283081001861	-0.023011742144276925	-0.051989820119430985
50	1.6999999999999926	0.49890532939250853	-0.008870668180244179	-0.16828409989139187	0.4912698390105059	-0.012934171496253533	-0.14699590533602558	0.4773861325481151	-0.023434805121175573	-0.12119281659957148	0.47627139379864825	-0.02669068988989598	-0.07671758110954563	0.5444182200933856	-0.016438673231641943	-0.11224884597716167	0.5460438264577541	-0.002340856698928029	-0.12350091125239282	0.5320922597141035	0.015753408234781774	-0.13398714961064995	0.4911812605075976	0.01423867851039129	-0.12225549023154547	0.5473625396435505	-0.012026486136483383	-0.09952166399152496	0.5523030861395364	0.003546083356899987	-0.10733742241248123	0.5380895214720904	0.026943827896458106	-0.11733390578944503	0.49501817769689505	0.028939840569939146	-0.10562821487407237	0.5353636590038924	-0.0005462857238835994	-0.08597991471292465	0.5443523843416642	0.014518223136059993	-0.09013483825142443	0.5386455144469285	0.03775779901395693	-0.09702930908101204	0.4992084175359357	0.038168034089042346	-0.08812605527040251	0.5360528713987543	0.0007094523882629211	-0.07400230113495943	0.5439675466562811	0.01587621408439499	-0.07343023888254785	0.5368090741594284	0.03561352063233336	-0.07351402876567337	0.5014027249107155	0.03782325617726434	-0.06700319527835108	0.4622830810018608	-0.023011742144276925	-0.051989820119430985
51	1.7333333333333258	0.5039141853125368	-0.007720865184828285	-0.166213052017552	0.49424286595058997	-0.012369545631160106	-0.14589420972998257	0.4791890461573308	-0.023484380114477288	-0.12102127335245472	0.47646436446448137	-0.02667007570243707	-0.07661049252962415	0.55537002592672	-0.010241127768632063	-0.11842961652597095	0.550632293927368	0.0038457368273363546	-0.12877921271892312	0.5320194184124062	0.018953745283398216	-0.13635012934480772	0.492246738310401	0.013888565727800617	-0.12199345955083685	0.5605392818967301	-0.004814289360828727	-0.10560550488057108	0.5583407828302752	0.011565728419431043	-0.1130123678719579	0.5380327390290287	0.03127027752455647	-0.11999260078571905	0.4958595440546347	0.02853547323295691	-0.10549810554999561	0.5469734993403075	0.0045002875112347684	-0.08943312845129303	0.5503827378575262	0.02155897676351337	-0.09416369012269188	0.5383763368750119	0.04266784742437468	-0.09968110744152037	0.4999290280073767	0.03767841117407367	-0.08820806073452703	0.545537303372078	0.006148452342839339	-0.07675238954882757	0.5487484774255742	0.022945427531886553	-0.07601077934347378	0.5371232880695923	0.040415111457960284	-0.07532002977912888	0.5021538295948932	0.037322983529337384	-0.06704602410718719	0.4622830810018608	-0.023011742144276925	-0.051989820119430985
